<?xml version="1.0" encoding="utf-8"?>
<!-- Generator: Adobe Illustrator 19.1.0, SVG Export Plug-In . SVG Version: 6.00 Build 0)  -->
<svg version="1.1" id="Calque_1" xmlns="http://www.w3.org/2000/svg" xmlns:xlink="http://www.w3.org/1999/xlink" x="0px" y="0px"
	 viewBox="0 0 6000 6000" style="enable-background:new 0 0 6000 6000;" xml:space="preserve">
<style type="text/css">
	.st0{fill:#FFFFFF;}
	.st1{fill:none;stroke:#1C1C1C;stroke-width:5;stroke-miterlimit:10;}
</style>
<g>
	<path class="st0" d="M2364.9,939.1c86.7-277.1,188-491.8,301.1-638.2c107.3-138.9,219.8-209.3,334.6-209.3s227.3,70.4,334.6,209.3
		c113.1,146.4,214.4,361.1,301.1,638.2c172.2,550.3,267,1282.1,267,2060.6c0,778.5-94.8,1510.3-267,2060.6
		c-86.7,277.1-188,491.8-301.1,638.2c-107.3,138.9-219.8,209.3-334.6,209.3s-227.3-70.4-334.6-209.3
		c-113.1-146.4-214.4-361.1-301.1-638.2c-172.2-550.3-267-1282.1-267-2060.6C2097.9,2221.2,2192.8,1489.3,2364.9,939.1
		 M2277.4,5087.7c89.9,287.5,196.3,511.8,316,666.8c125.5,162.5,262.5,244.9,407.2,244.9c144.7,0,281.7-82.4,407.2-244.9
		c119.7-155,226.1-379.4,316-666.8c174.9-558.9,271.2-1300.4,271.2-2088c0-787.6-96.3-1529.1-271.2-2088
		c-89.9-287.5-196.3-511.8-316-666.8C3282.3,82.3,3145.3-0.1,3000.6-0.1c-144.7,0-281.7,82.4-407.2,244.9
		c-119.7,155-226.1,379.4-316,666.8c-174.9,558.9-271.2,1300.4-271.2,2088C2006.2,3787.3,2102.5,4528.8,2277.4,5087.7"/>
	<path class="st1" d="M2364.9,939.1c86.7-277.1,188-491.8,301.1-638.2c107.3-138.9,219.8-209.3,334.6-209.3s227.3,70.4,334.6,209.3
		c113.1,146.4,214.4,361.1,301.1,638.2c172.2,550.3,267,1282.1,267,2060.6c0,778.5-94.8,1510.3-267,2060.6
		c-86.7,277.1-188,491.8-301.1,638.2c-107.3,138.9-219.8,209.3-334.6,209.3s-227.3-70.4-334.6-209.3
		c-113.1-146.4-214.4-361.1-301.1-638.2c-172.2-550.3-267-1282.1-267-2060.6C2097.9,2221.2,2192.8,1489.3,2364.9,939.1z
		 M2277.4,5087.7c89.9,287.5,196.3,511.8,316,666.8c125.5,162.5,262.5,244.9,407.2,244.9c144.7,0,281.7-82.4,407.2-244.9
		c119.7-155,226.1-379.4,316-666.8c174.9-558.9,271.2-1300.4,271.2-2088c0-787.6-96.3-1529.1-271.2-2088
		c-89.9-287.5-196.3-511.8-316-666.8C3282.3,82.3,3145.3-0.1,3000.6-0.1c-144.7,0-281.7,82.4-407.2,244.9
		c-119.7,155-226.1,379.4-316,666.8c-174.9,558.9-271.2,1300.4-271.2,2088C2006.2,3787.3,2102.5,4528.8,2277.4,5087.7z"/>
	<path class="st0" d="M1094,1992.1c-134.6-257.2-214.8-480.7-238.4-664.1c-22.3-174,7.5-303.4,88.6-384.6
		c81.2-81.2,210.5-111,384.6-88.6c183.4,23.5,406.9,103.7,664.1,238.4c510.8,267.3,1095.4,717.8,1645.9,1268.3
		c550.5,550.5,1000.9,1135,1268.3,1645.9c134.6,257.2,214.8,480.7,238.4,664.1c22.3,174-7.5,303.4-88.6,384.6
		c-81.2,81.2-210.5,111-384.6,88.6c-183.4-23.5-406.9-103.7-664.1-238.4c-510.8-267.4-1095.4-717.8-1645.9-1268.3
		C1811.8,3087.5,1361.4,2502.9,1094,1992.1 M3965.6,4987.5c266.9,139.7,500.7,223.1,695,248.1c203.7,26.2,358.8-12.5,461.1-114.8
		c102.3-102.3,140.9-257.4,114.8-461.1c-24.9-194.3-108.4-428.1-248.1-695c-271.5-518.9-727.8-1111.3-1284.7-1668.2
		c-556.9-556.9-1149.4-1013.1-1668.2-1284.7c-266.9-139.7-500.7-223.1-695-248.1c-203.7-26.2-358.8,12.5-461.1,114.8
		C777.1,980.8,738.5,1136,764.7,1339.7c24.9,194.3,108.4,428.1,248.1,695c271.5,518.9,727.8,1111.3,1284.7,1668.2
		C2854.3,4259.7,3446.8,4716,3965.6,4987.5"/>
	<path class="st1" d="M1094,1992.1c-134.6-257.2-214.8-480.7-238.4-664.1c-22.3-174,7.5-303.4,88.6-384.6
		c81.2-81.2,210.5-111,384.6-88.6c183.4,23.5,406.9,103.7,664.1,238.4c510.8,267.3,1095.4,717.8,1645.9,1268.3
		c550.5,550.5,1000.9,1135,1268.3,1645.9c134.6,257.2,214.8,480.7,238.4,664.1c22.3,174-7.5,303.4-88.6,384.6
		c-81.2,81.2-210.5,111-384.6,88.6c-183.4-23.5-406.9-103.7-664.1-238.4c-510.8-267.4-1095.4-717.8-1645.9-1268.3
		C1811.8,3087.5,1361.4,2502.9,1094,1992.1z M3965.6,4987.5c266.9,139.7,500.7,223.1,695,248.1c203.7,26.2,358.8-12.5,461.1-114.8
		c102.3-102.3,140.9-257.4,114.8-461.1c-24.9-194.3-108.4-428.1-248.1-695c-271.5-518.9-727.8-1111.3-1284.7-1668.2
		c-556.9-556.9-1149.4-1013.1-1668.2-1284.7c-266.9-139.7-500.7-223.1-695-248.1c-203.7-26.2-358.8,12.5-461.1,114.8
		C777.1,980.8,738.5,1136,764.7,1339.7c24.9,194.3,108.4,428.1,248.1,695c271.5,518.9,727.8,1111.3,1284.7,1668.2
		C2854.3,4259.7,3446.8,4716,3965.6,4987.5z"/>
	<path class="st0" d="M1993,4906.2c-257.2,134.6-480.7,214.8-664.1,238.4c-174,22.3-303.4-7.5-384.6-88.6
		c-81.2-81.2-111-210.5-88.6-384.6c23.5-183.4,103.7-406.9,238.4-664.1c267.3-510.8,717.8-1095.4,1268.3-1645.9
		c550.5-550.5,1135-1000.9,1645.9-1268.3c257.2-134.6,480.7-214.8,664.1-238.4c174-22.3,303.4,7.5,384.6,88.6s111,210.5,88.6,384.6
		c-23.5,183.4-103.7,406.9-238.4,664.1c-267.4,510.8-717.8,1095.4-1268.3,1645.9C3088.3,4188.5,2503.8,4638.9,1993,4906.2
		 M4988.4,2034.6c139.7-266.9,223.1-500.7,248.1-695c26.2-203.7-12.5-358.8-114.8-461.1c-102.3-102.3-257.4-140.9-461.1-114.8
		c-194.3,24.9-428.1,108.4-695,248.1c-518.9,271.5-1111.3,727.8-1668.2,1284.7c-556.9,556.9-1013.1,1149.4-1284.7,1668.2
		c-139.7,266.9-223.1,500.7-248.1,695c-26.2,203.7,12.5,358.8,114.8,461.1c102.3,102.3,257.4,140.9,461.1,114.8
		c194.3-24.9,428.1-108.4,695-248.1c518.9-271.5,1111.3-727.8,1668.2-1284.7C4260.6,3145.9,4716.9,2553.5,4988.4,2034.6"/>
	<path class="st1" d="M1993,4906.2c-257.2,134.6-480.7,214.8-664.1,238.4c-174,22.3-303.4-7.5-384.6-88.6
		c-81.2-81.2-111-210.5-88.6-384.6c23.5-183.4,103.7-406.9,238.4-664.1c267.3-510.8,717.8-1095.4,1268.3-1645.9
		c550.5-550.5,1135-1000.9,1645.9-1268.3c257.2-134.6,480.7-214.8,664.1-238.4c174-22.3,303.4,7.5,384.6,88.6s111,210.5,88.6,384.6
		c-23.5,183.4-103.7,406.9-238.4,664.1c-267.4,510.8-717.8,1095.4-1268.3,1645.9C3088.3,4188.5,2503.8,4638.9,1993,4906.2z
		 M4988.4,2034.6c139.7-266.9,223.1-500.7,248.1-695c26.2-203.7-12.5-358.8-114.8-461.1c-102.3-102.3-257.4-140.9-461.1-114.8
		c-194.3,24.9-428.1,108.4-695,248.1c-518.9,271.5-1111.3,727.8-1668.2,1284.7c-556.9,556.9-1013.1,1149.4-1284.7,1668.2
		c-139.7,266.9-223.1,500.7-248.1,695c-26.2,203.7,12.5,358.8,114.8,461.1c102.3,102.3,257.4,140.9,461.1,114.8
		c194.3-24.9,428.1-108.4,695-248.1c518.9-271.5,1111.3-727.8,1668.2-1284.7C4260.6,3145.9,4716.9,2553.5,4988.4,2034.6z"/>
	<path class="st0" d="M939.7,3643.5c-277.1-86.7-491.8-188-638.2-301.1c-138.9-107.3-209.3-219.8-209.3-334.6
		s70.4-227.3,209.3-334.6c146.4-113.1,361.1-214.4,638.2-301.1c550.3-172.2,1282.1-267,2060.6-267c778.5,0,1510.3,94.8,2060.6,267
		c277.1,86.7,491.8,188,638.2,301.1c138.9,107.3,209.3,219.8,209.3,334.6s-70.4,227.3-209.3,334.6
		c-146.4,113.1-361.1,214.4-638.2,301.1c-550.3,172.2-1282.1,267-2060.6,267C2221.8,3910.5,1490,3815.7,939.7,3643.5 M5088.3,3731.1
		c287.5-89.9,511.8-196.3,666.8-316c162.5-125.5,244.9-262.5,244.9-407.2s-82.4-281.7-244.9-407.2c-155-119.7-379.4-226.1-666.8-316
		c-558.9-174.9-1300.4-271.2-2088-271.2c-787.6,0-1529.1,96.3-2088,271.2c-287.5,89.9-511.8,196.3-666.8,316
		C82.9,2726.2,0.5,2863.2,0.5,3007.9s82.4,281.7,244.9,407.2c155,119.7,379.4,226.1,666.8,316c558.9,174.9,1300.4,271.2,2088,271.2
		C3787.9,4002.3,4529.4,3906,5088.3,3731.1"/>
	<path class="st1" d="M939.7,3643.5c-277.1-86.7-491.8-188-638.2-301.1c-138.9-107.3-209.3-219.8-209.3-334.6
		s70.4-227.3,209.3-334.6c146.4-113.1,361.1-214.4,638.2-301.1c550.3-172.2,1282.1-267,2060.6-267c778.5,0,1510.3,94.8,2060.6,267
		c277.1,86.7,491.8,188,638.2,301.1c138.9,107.3,209.3,219.8,209.3,334.6s-70.4,227.3-209.3,334.6
		c-146.4,113.1-361.1,214.4-638.2,301.1c-550.3,172.2-1282.1,267-2060.6,267C2221.8,3910.5,1490,3815.7,939.7,3643.5z
		 M5088.3,3731.1c287.5-89.9,511.8-196.3,666.8-316c162.5-125.5,244.9-262.5,244.9-407.2s-82.4-281.7-244.9-407.2
		c-155-119.7-379.4-226.1-666.8-316c-558.9-174.9-1300.4-271.2-2088-271.2c-787.6,0-1529.1,96.3-2088,271.2
		c-287.5,89.9-511.8,196.3-666.8,316C82.9,2726.2,0.5,2863.2,0.5,3007.9s82.4,281.7,244.9,407.2c155,119.7,379.4,226.1,666.8,316
		c558.9,174.9,1300.4,271.2,2088,271.2C3787.9,4002.3,4529.4,3906,5088.3,3731.1z"/>
</g>
</svg>
